<svg xmlns="http://www.w3.org/2000/svg" xmlns:xlink="http://www.w3.org/1999/xlink" width="10" height="12" viewBox="0 0 10 12">
    <defs>
        <path id="a" d="M5 0a.5.5 0 0 1 .5.5v.531A4 4 0 0 1 9 5v5h.5a.5.5 0 1 1 0 1H6a1 1 0 0 1-2 0H.5a.5.5 0 1 1 0-1H1V5a4 4 0 0 1 3.5-3.97V.5A.5.5 0 0 1 5 0zm0 2a3 3 0 0 0-2.995 2.824L2 5v5h6V5a3 3 0 0 0-3-3z"/>
    </defs>
    <g fill="none" fill-rule="evenodd">
        <mask id="b" fill="#fff">
            <use xlink:href="#a"/>
        </mask>
        <use fill="#D8D8D8" xlink:href="#a"/>
        <g fill="#FFF" mask="url(#b)">
            <path d="M-3-2h25v24H-3z"/>
        </g>
    </g>
</svg>
