<svg xmlns="http://www.w3.org/2000/svg" xmlns:xlink="http://www.w3.org/1999/xlink" width="13" height="18" viewBox="0 0 13 18">
    <defs>
        <path id="a" d="M7.775 0v1.601h4.383v14.604H7.775v1.68L0 16.147V1.737L7.775 0zm-1.35 1.685L1.35 2.817v12.249L6.425 16.2V1.685zm4.383 1.266H7.775v11.904h3.033V2.951zM5.535 3.988L3.997 9.091l1.54 5.112-.755-.168-1.136-3.774-.993 3.299-.66-.149 1.3-4.32-1.299-4.312.66-.147.992 3.29L4.78 4.157l.756-.169zm4.48 8.497v1.35H8.526v-1.35h1.487zm0-2.13v1.35H8.526v-1.35h1.487zm0-2.125v1.35H8.526V8.23h1.487zm0-2.128v1.35H8.526v-1.35h1.487zm0-2.129v1.35H8.526v-1.35h1.487z"/>
    </defs>
    <g fill="none" fill-rule="evenodd">
        <mask id="b" fill="#fff">
            <use xlink:href="#a"/>
        </mask>
        <use fill="#231815" xlink:href="#a"/>
        <g fill="#FFF" mask="url(#b)">
            <path d="M-9-9h36v36H-9z"/>
        </g>
    </g>
</svg>
