<svg xmlns="http://www.w3.org/2000/svg" xmlns:xlink="http://www.w3.org/1999/xlink" width="12" height="12" viewBox="0 0 12 12">
    <defs>
        <path id="prefix__a" d="M6 .1c3.314 0 6 2.686 6 6s-2.686 6-6 6-6-2.686-6-6 2.686-6 6-6zm0 1c-2.761 0-5 2.239-5 5s2.239 5 5 5 5-2.239 5-5-2.239-5-5-5zm0 1c2.21 0 4 1.79 4 4s-1.79 4-4 4-4-1.79-4-4 1.79-4 4-4zm0 1c-1.657 0-3 1.343-3 3s1.343 3 3 3 3-1.343 3-3-1.343-3-3-3zm0 1.5c.828 0 1.5.672 1.5 1.5S6.828 7.6 6 7.6s-1.5-.672-1.5-1.5.672-1.5 1.5-1.5z"/>
    </defs>
    <g fill="none" fill-rule="evenodd" transform="translate(0 -.1)">
        <mask id="prefix__b" fill="#fff">
            <use xlink:href="#prefix__a"/>
        </mask>
        <use fill="#D8D8D8" xlink:href="#prefix__a"/>
        <g fill="#FFF" mask="url(#prefix__b)">
            <path d="M0 0H30V29H0z" transform="translate(-7 -6.9)"/>
        </g>
    </g>
</svg>
