<svg xmlns="http://www.w3.org/2000/svg" width="108" height="26" viewBox="0 0 108 26">
    <g fill="none">
        <path fill="#FF6634" d="M3.84 24.512L3.84 11.584 18.368 11.584 18.368 24.512 22.208 24.512 22.208 0 18.368 0 18.368 8.224 3.84 8.224 3.84 0 0 0 0 24.512z" transform="translate(.368 .504)"/>
        <path fill="#1F2639" d="M28.256 25.504c.704 0 1.28-.224 1.792-.672.48-.416.736-.992.736-1.696s-.256-1.28-.736-1.728c-.512-.416-1.088-.64-1.792-.64s-1.312.224-1.792.64c-.512.448-.736 1.024-.736 1.728s.224 1.28.736 1.696c.48.448 1.088.672 1.792.672zm19.104-.992c3.008 0 5.312-.8 6.912-2.432 1.728-1.76 2.592-4 2.592-6.688V9.184c0-2.72-.864-4.96-2.592-6.72C52.672.832 50.368 0 47.36 0H34.304v24.512H47.36zm-.096-3.328h-9.12V3.328h9.12c1.792 0 3.264.608 4.352 1.792.928 1.088 1.408 2.496 1.408 4.224V15.2c0 1.728-.48 3.104-1.44 4.192-1.088 1.216-2.528 1.792-4.32 1.792zm34.912 3.328v-3.328h-13.76c-1.568 0-2.688-.416-3.328-1.248-.512-.704-.736-1.824-.736-3.424V13.92h16v-3.296h-16v-2.56c0-1.6.224-2.752.736-3.456.64-.832 1.76-1.28 3.328-1.28h13.76V0h-14.08c-2.56 0-4.448.64-5.728 1.92-1.28 1.28-1.888 3.264-1.888 5.952v8.832c0 2.688.608 4.672 1.888 5.888 1.28 1.28 3.168 1.92 5.728 1.92h14.08zm7.392 0v-8.704h10.72c2.368 0 4.16-.512 5.376-1.568 1.248-1.088 1.888-2.528 1.888-4.32v-4c0-1.76-.64-3.2-1.888-4.32-1.216-1.056-3.008-1.6-5.408-1.6H85.728v24.512h3.84zm10.496-12H89.568V3.328h10.496c2.432 0 3.648.928 3.648 2.752v3.68c0 1.856-1.216 2.752-3.648 2.752z" transform="translate(.368 .504)"/>
    </g>
</svg>
