<svg xmlns="http://www.w3.org/2000/svg" width="24.539" height="22.17" viewBox="0 0 24.539 22.17">
    <defs>
        <style>
            .cls-1{fill:none}
        </style>
    </defs>
    <g id="그룹_6" transform="translate(-823.751 -667.217)">
        <path id="패스_287" d="M836.02 671.07l9.2 7.078v10.47h-18.4v-10.47l9.2-7.078m0-.967l-9.968 7.668v11.614h19.939v-11.614l-9.969-7.669z"/>
        <path id="패스_288" d="M844.923 676.376l-.443-.332.441.335z" class="cls-1"/>
        <path id="패스_289" d="M827.128 676.38l.44-.335-.442.332z" class="cls-1"/>
        <path id="패스_290" d="M846.917 675.538l-8.372-6.391-.632-.483-1.264-.964-.632-.483-.632.483-1.265.964-.632.483-8.377 6.391a1.528 1.528 0 1 0 1.855 2.429v.005l9.038-6.9 9.038 6.9v-.005a1.528 1.528 0 1 0 1.855-2.429h.02zm-.927 1.981a.746.746 0 0 1-.458-.168l-.614-.459-.44-.336-7.823-5.971-.632-.483-.632.483-7.823 5.971-.44.336-.614.459a.741.741 0 0 1-.458.168.767.767 0 0 1-.767-.767.754.754 0 0 1 .31-.6l.6-.472.443-.344 7.483-5.713.632-.483 1.264-.965 1.264.965.635.483 7.491 5.715.447.34.6.472a.752.752 0 0 1 .309.6.767.767 0 0 1-.767.767z"/>
        <path id="패스_291" d="M826.642 674.82l.924 1.224a1.53 1.53 0 0 0-.924-1.224z" class="cls-1"/>
        <path id="패스_292" d="M843.69 685.467h-6.135v-6.9h6.135zm-5.368-.768h4.6v-5.367h-4.6z"/>
        <path id="패스_293" d="M836.686 685.467h-4.6v-6.9h4.6zm-3.834-.768h3.066v-5.367h-3.07z"/>
        <path id="패스_294" d="M832.851 685.467h-4.6v-6.9h4.6zm-3.834-.812h3.067v-5.279h-3.067z"/>
        <path id="사각형_97" d="M0 0H1.534V0.767H0z" transform="translate(829.784 680.098)"/>
        <path id="사각형_98" d="M0 0H1.534V0.767H0z" transform="translate(829.784 681.632)"/>
        <path id="사각형_99" d="M0 0H1.534V0.767H0z" transform="translate(829.784 683.166)"/>
        <path id="패스_295" d="M836.018 673.935a.767.767 0 1 1-.767.767.767.767 0 0 1 .767-.767m0-.766a1.534 1.534 0 1 0 1.533 1.535 1.533 1.533 0 0 0-1.532-1.535z"/>
        <path id="패스_296" d="M848.29 688.62h-24.539v.767h24.539z"/>
        <path id="패스_297" d="M844.456 689.381h-7.668v-2.3h7.668zm-6.9-.767h6.135v-.767h-6.135z"/>
    </g>
</svg>
