<svg xmlns="http://www.w3.org/2000/svg" width="30.235" height="23.645" viewBox="0 0 30.235 23.645">
    <defs>
        <style>
            .cls-2{fill:none}
        </style>
    </defs>
    <g id="그룹_8" transform="translate(-948.477 -433.742)">
        <path id="패스_254" d="M951 442.147c0-.141.011-.281.021-.42h-2.548v.841h2.543c-.006-.14-.016-.279-.016-.421z"/>
        <path id="패스_255" d="M953.035 437.7l-1.8-1.8-.594.594 1.8 1.8a6.06 6.06 0 0 1 .594-.594z"/>
        <path id="패스_256" d="M957.3 436.285v-2.543h-.841v2.543c.139-.01.279-.021.42-.021s.284.011.421.021z"/>
        <path id="패스_257" d="M950.642 447.8l.594.6 1.8-1.8a5.938 5.938 0 0 1-.594-.594z"/>
        <path id="패스_258" d="M963.123 436.5l-.594-.594-1.8 1.8a5.951 5.951 0 0 1 .594.594z"/>
        <path id="패스_259" d="M954.535 445.09a3.836 3.836 0 0 1-.594-.594 3.733 3.733 0 0 1-.8-1.927 7.857 7.857 0 0 1 0-.841 3.74 3.74 0 0 1 .8-1.927 3.881 3.881 0 0 1 .594-.594 3.744 3.744 0 0 1 1.927-.8 7.364 7.364 0 0 1 .841 0 3.744 3.744 0 0 1 1.927.8 3.835 3.835 0 0 1 .594.594 3.72 3.72 0 0 1 .707 1.415h.869a4.6 4.6 0 0 0-4.094-3.668c-.138-.013-.279-.021-.42-.021s-.282.008-.42.021a4.609 4.609 0 0 0-2.536 1.051 4.677 4.677 0 0 0-.594.6 4.6 4.6 0 0 0-1.052 2.531c-.013.139-.021.279-.021.42s.008.282.021.42a4.6 4.6 0 0 0 1.051 2.536 4.694 4.694 0 0 0 .594.594 4.6 4.6 0 0 0 1.34.769l.252-.817a3.725 3.725 0 0 1-.986-.562z"/>
        <path id="사각형_90" d="M0 0H0.782V1.564H0z" class="cls-2" transform="translate(953.352 451.911)"/>
        <path id="패스_260" d="M960.315 441.744a3.11 3.11 0 0 0-.589-1.184 3.24 3.24 0 0 0-.5-.5 3.13 3.13 0 0 0-1.617-.668 5.953 5.953 0 0 0-.707 0 3.145 3.145 0 0 0-1.617.668 3.286 3.286 0 0 0-.5.5 3.137 3.137 0 0 0-.668 1.617 6.413 6.413 0 0 0 0 .707 3.152 3.152 0 0 0 1.168 2.116 3.083 3.083 0 0 0 .823.469l1.144-3.715z" class="cls-2"/>
        <path id="패스_262" d="M961.133 442.524h7.074v-.781h-7.164a3.955 3.955 0 0 1 .073.43c.011.117.017.233.017.351z"/>
        <path id="패스_264" d="M975.578 441.743h-7.365v.782h6.8l2.607 8.6h-9.408v.782h10.493z"/>
        <path id="패스_265" d="M966.974 453.476h-12.835v.782h24.573v-.782z"/>
        <path id="사각형_91" d="M0 0H0.782V1.564H0z" transform="translate(977.924 451.911)"/>
        <path id="사각형_92" d="M0 0H0.782V1.564H0z" transform="translate(954.134 451.911)"/>
        <path id="사각형_93" d="M0 0H0.782V3.129H0z" transform="translate(967.756 454.258)"/>
        <path id="사각형_94" d="M0 0H0.782V3.129H0z" transform="translate(964.302 454.258)"/>
        <path id="사각형_95" d="M0 0H8.929V0.782H0z" transform="translate(961.955 456.605)"/>
        <path id="사각형_96" d="M0 0H21.444V0.782H0z" transform="translate(955.698 448)"/>
        <path id="패스_266" d="M964.853 442.525h-.782l-.782 8.6h.782z"/>
        <path id="패스_267" d="M956.911 445.657a5.965 5.965 0 0 0 .707 0z" class="cls-2"/>
        <path id="패스_268" d="M957.615 446.379c-.116.011-.232.018-.352.018s-.236-.008-.352-.018c-.082-.007-.16-.028-.24-.04l-1.451 4.79h4.39l1-5.475h-1.082a3.827 3.827 0 0 1-1.913.725z" class="cls-2"/>
        <path id="패스_271" d="M957.114 444.874l.707-2.347h2.579a2.543 2.543 0 0 0-.09-.782h-3.05l-1.143 3.715a3.051 3.051 0 0 0 .361.119v-.705z"/>
        <path id="패스_272" d="M955.219 451.129l1.451-4.79a3.8 3.8 0 0 1-.762-.2l-1.775 5.77h14.079v-.782h-12.993z"/>
        <path id="패스_273" d="M956.877 445.65h-.4v-.077a3.051 3.051 0 0 1-.361-.119l-.21.683a3.8 3.8 0 0 0 .762.2z"/>
        <path id="패스_274" d="M960.4 442.174c.006.059.01.2.01.352h.73c0-.118-.007-.236-.017-.352a3.927 3.927 0 0 0-.073-.43h-.73a3.165 3.165 0 0 1 .08.43z"/>
        <path id="패스_275" d="M976.36 445.654v-.782h-14.83l-.143.782z"/>
        <path id="패스_276" d="M960.328 444.872c-.031.041-.059.088-.093.129a3.809 3.809 0 0 1-.5.5c-.068.057-.145.1-.216.156h1.081l.142-.782z"/>
        <path id="패스_277" d="M959.346 444.872h-2.23l-.237.779h.755a3.124 3.124 0 0 0 1.6-.665c.038-.031.066-.079.112-.114z"/>
        <path id="패스_278" d="M959.228 444.989a3.124 3.124 0 0 1-1.6.665h1.888c.072-.053.149-.1.216-.156a3.809 3.809 0 0 0 .5-.5c.034-.041.061-.087.093-.129h-.982c-.043.038-.071.086-.115.12z"/>
        <path id="패스_280" d="M957.115 444.872h-.635v.707a2.849 2.849 0 0 0 .4.074z"/>
        <path id="패스_281" d="M956.48 445.578v.077h.4a3 3 0 0 1-.4-.077z"/>
        <path id="패스_282" d="M959.887 445.654l-1 5.476h.782l1-5.476z"/>
        <g id="그룹_197">
            <path id="패스_261" d="M960.457 442.525h-.039c0 .1-.007.2-.016.3z" class="cls-2"/>
            <path id="패스_263" d="M960.4 442.877v-.054l-.134.739a3.9 3.9 0 0 0 .134-.685z"/>
            <path id="패스_283" d="M960.4 442.823v.054a3.61 3.61 0 0 1-.132.684l-.237 1.314h.782l.428-2.347h-.782z"/>
        </g>
        <path id="패스_284" d="M960.6 445.654h.782l.142-.782h-.782z"/>
        <path id="패스_285" d="M967.874 442.525h.782l.782 8.6h-.782z"/>
        <path id="패스_286" d="M971.02 442.525h.782l1.564 8.6h-.785z"/>
    </g>
</svg>
